<?xml version="1.0" encoding="utf-8"?>
<!-- Generator: Adobe Illustrator 23.0.3, SVG Export Plug-In . SVG Version: 6.00 Build 0)  -->
<svg version="1.1" id="Layer_1" xmlns="http://www.w3.org/2000/svg" xmlns:xlink="http://www.w3.org/1999/xlink" x="0px" y="0px"
	 viewBox="0 0 235.5 46.7" style="enable-background:new 0 0 235.5 46.7;" xml:space="preserve">
<g>
	<path d="M58.7,43.8V0h26.8c0.8,0,1.5,0.3,2.1,0.9c0.6,0.6,0.9,1.3,0.9,2.1c0,0.8-0.3,1.5-0.9,2.1C87,5.7,86.3,6,85.5,6H64.6v9.3h15
		c0.8,0,1.5,0.3,2.1,0.9c0.6,0.6,0.9,1.3,0.9,2.1c0,0.8-0.3,1.5-0.9,2.1c-0.6,0.6-1.3,0.9-2.1,0.9h-15v22.6c0,0.8-0.3,1.5-0.9,2.1
		c-0.6,0.6-1.3,0.9-2.1,0.9c-0.8,0-1.5-0.3-2.1-0.9C59,45.3,58.7,44.6,58.7,43.8z" fill="#3b5998"/>
	<path d="M88.4,42.6l11.9-40.4c0.5-1.5,1.5-2.2,3-2.2c1.5,0,2.4,0.6,2.8,1.9l11.8,41c0.1,0.3,0.1,0.6,0.1,0.9c0,0.8-0.3,1.5-0.8,2.1
		c-0.6,0.6-1.2,0.9-1.9,0.9c-1.5,0-2.5-0.7-3-2.1l-2.3-8H96.3l-2.6,8.6c-0.1,0.4-0.4,0.7-0.9,1.1c-0.5,0.3-1.1,0.5-1.7,0.5
		c-0.9,0-1.6-0.3-2.2-0.9c-0.6-0.6-0.8-1.3-0.8-2.1C88.2,43.3,88.2,43,88.4,42.6z M103.2,13.7l-5.1,16.9h10L103.2,13.7z" fill="#8db600"/>
	<path d="M125.8,42.6l11.9-40.4c0.5-1.5,1.5-2.2,3-2.2c1.5,0,2.4,0.6,2.8,1.9l11.8,41c0.1,0.3,0.1,0.6,0.1,0.9
		c0,0.8-0.3,1.5-0.8,2.1c-0.6,0.6-1.2,0.9-1.9,0.9c-1.5,0-2.5-0.7-3-2.1l-2.3-8h-13.5l-2.6,8.6c-0.1,0.4-0.4,0.7-0.9,1.1
		c-0.5,0.3-1.1,0.5-1.7,0.5c-0.9,0-1.6-0.3-2.2-0.9c-0.6-0.6-0.8-1.3-0.8-2.1C125.7,43.3,125.7,43,125.8,42.6z M140.7,13.7
		l-5.1,16.9h10L140.7,13.7z" fill="#FF9900" />
	<path d="M193.9,3v43.7H186l-15.9-36.3v33.3c0,0.8-0.3,1.5-0.9,2.1c-0.6,0.6-1.3,0.9-2.1,0.9c-0.8,0-1.5-0.3-2.1-0.9
		c-0.6-0.6-0.9-1.3-0.9-2.1V0h7.8l16,36.2V3c0-0.8,0.3-1.5,0.9-2.1s1.3-0.9,2.1-0.9c0.8,0,1.5,0.3,2.1,0.9
		C193.6,1.5,193.9,2.2,193.9,3z" fill="#E50914" />
	<path d="M222.8,0h9.8c0.8,0,1.5,0.3,2.1,0.9c0.6,0.6,0.9,1.3,0.9,2.1c0,0.9-0.3,1.6-0.9,2.2c-0.6,0.6-1.3,0.9-2,0.9h-9.4
		c-0.9,0-1.7,0.4-2.4,1.3l-8.3,10.7c-0.7,0.8-1.1,2-1,3.5v16.4c0,0.8,0.3,1.6,0.9,2.1c0.6,0.6,1.3,0.9,2.1,0.9h12
		c0.8,0,1.5-0.3,2.1-0.9c0.6-0.6,0.9-1.3,0.9-2.1v-6.4h-6.1c-0.8,0-1.5-0.3-2.1-0.9c-0.6-0.6-0.8-1.3-0.8-2.1c0-0.8,0.3-1.5,0.8-2.1
		c0.6-0.6,1.3-0.9,2.1-0.9h12v12.3c0,2.4-0.9,4.5-2.6,6.3c-1.7,1.7-3.8,2.6-6.3,2.6h-12c-2.5,0-4.6-0.9-6.3-2.6
		c-1.7-1.7-2.6-3.8-2.6-6.3V21.5c0-2.9,0.8-5.4,2.4-7.4L216.6,3c0.6-0.8,1.5-1.6,2.7-2.1C220.4,0.3,221.5,0,222.8,0z" fill="#4285F4"/>
</g>
<g>
	<path d="M0,45.6l3.1-6.4c0.9,0.5,1.9,0.7,3,0.7c3.6,0,8-3.2,13.4-9.6l2.1-2.6l-4.8-11.3c-1.2-2.8-2.4-4.3-3.5-4.3
		c-1.4,0-3.5,1.9-6.4,5.7l0.9-4.6c3.4-4.5,6.4-6.8,8.8-6.8c2.3,0,4.4,2.3,6.4,6.8l4,9.2l2.3-2.9c6.8-8.7,12.5-13.1,16.8-13.1
		c1.2,0,2.4,0.4,3.6,1.2l-3.6,6.4c-1-0.6-1.9-0.9-2.8-0.9c-3.9,0-8.5,3.2-13.7,9.6l-1.7,2l5.3,12.3c1.2,2.9,2.4,4.4,3.7,4.4
		c1.7,0,4-1.7,7-5.2L43,40.6c-3.6,3.9-6.8,5.9-9.5,5.9c-2.6,0-4.8-1.9-6.4-5.8l-4.5-10.8l-2.8,3.6C12.8,42.2,7.5,46.5,3.7,46.5
		C2.8,46.5,1.5,46.2,0,45.6z" />
</g>
</svg>
